HIERARCHY
ROOT mixamorig:Hips
{
	OFFSET 0.000000 201.639420 0.000000
	CHANNELS 6 Xposition Yposition Zposition Xrotation Yrotation Zrotation
	JOINT mixamorig:Spine
	{
		OFFSET 0.006200 19.524994 -2.481800
		CHANNELS 3 Xrotation Yrotation Zrotation
		JOINT mixamorig:Spine1
		{
			OFFSET -0.000900 22.835007 -2.825400
			CHANNELS 3 Xrotation Yrotation Zrotation
			JOINT mixamorig:Spine2
			{
				OFFSET -0.020600 26.552490 -3.193300
				CHANNELS 3 Xrotation Yrotation Zrotation
				JOINT mixamorig:Neck
				{
					OFFSET -0.060000 30.701813 1.352200
					CHANNELS 3 Xrotation Yrotation Zrotation
					JOINT mixamorig:Head
					{
						OFFSET -0.087200 22.547607 3.670900
						CHANNELS 3 Xrotation Yrotation Zrotation
						JOINT mixamorig:HeadTop_End
						{
							OFFSET -0.830600 40.355194 7.893500
							CHANNELS 3 Xrotation Yrotation Zrotation
							End Site
							{
								OFFSET 0.000000 30.592346 0.000000
							}
						}
						JOINT mixamorig:RightEye
						{
							OFFSET -6.302100 18.118591 16.197100
							CHANNELS 3 Xrotation Yrotation Zrotation
							End Site
							{
								OFFSET 0.000000 30.592346 0.000000
							}
						}
						JOINT mixamorig:LeftEye
						{
							OFFSET 6.741500 18.382690 16.401899
							CHANNELS 3 Xrotation Yrotation Zrotation
							End Site
							{
								OFFSET 0.000000 30.592346 0.000000
							}
						}
					}
				}
				JOINT mixamorig:LeftShoulder
				{
					OFFSET 11.924900 18.230499 1.425400
					CHANNELS 3 Xrotation Yrotation Zrotation
					JOINT mixamorig:LeftArm
					{
						OFFSET 25.435989 -0.697632 -5.229300
						CHANNELS 3 Xrotation Yrotation Zrotation
						JOINT mixamorig:LeftForeArm
						{
							OFFSET 54.684776 0.000000 0.000000
							CHANNELS 3 Xrotation Yrotation Zrotation
							JOINT mixamorig:LeftHand
							{
								OFFSET 55.098175 0.000000 0.000000
								CHANNELS 3 Xrotation Yrotation Zrotation
								JOINT mixamorig:LeftHandMiddle1
								{
									OFFSET 23.369751 0.000000 0.000000
									CHANNELS 3 Xrotation Yrotation Zrotation
									JOINT mixamorig:LeftHandMiddle2
									{
										OFFSET 6.378677 0.000000 0.000000
										CHANNELS 3 Xrotation Yrotation Zrotation
										JOINT mixamorig:LeftHandMiddle3
										{
											OFFSET 6.148331 0.000000 0.000000
											CHANNELS 3 Xrotation Yrotation Zrotation
											JOINT mixamorig:LeftHandMiddle4
											{
												OFFSET 6.582504 0.000000 0.000000
												CHANNELS 3 Xrotation Yrotation Zrotation
												End Site
												{
													OFFSET -1.168900 6.395691 1.028606
												}
											}
										}
									}
								}
								JOINT mixamorig:LeftHandThumb1
								{
									OFFSET 7.235672 -3.848206 5.434273
									CHANNELS 3 Xrotation Yrotation Zrotation
									JOINT mixamorig:LeftHandThumb2
									{
										OFFSET 6.568451 -3.792297 3.792300
										CHANNELS 3 Xrotation Yrotation Zrotation
										JOINT mixamorig:LeftHandThumb3
										{
											OFFSET 6.063080 -3.500519 3.500518
											CHANNELS 3 Xrotation Yrotation Zrotation
											JOINT mixamorig:LeftHandThumb4
											{
												OFFSET 4.793182 -2.767334 2.767349
												CHANNELS 3 Xrotation Yrotation Zrotation
												End Site
												{
													OFFSET 0.101639 6.054260 1.275483
												}
											}
										}
									}
								}
								JOINT mixamorig:LeftHandIndex1
								{
									OFFSET 23.101074 -0.309540 4.992809
									CHANNELS 3 Xrotation Yrotation Zrotation
									JOINT mixamorig:LeftHandIndex2
									{
										OFFSET 6.226883 0.000000 0.000000
										CHANNELS 3 Xrotation Yrotation Zrotation
										JOINT mixamorig:LeftHandIndex3
										{
											OFFSET 6.094330 0.000000 0.000000
											CHANNELS 3 Xrotation Yrotation Zrotation
											JOINT mixamorig:LeftHandIndex4
											{
												OFFSET 5.482605 0.000000 0.000000
												CHANNELS 3 Xrotation Yrotation Zrotation
												End Site
												{
													OFFSET -1.427902 5.233032 0.797164
												}
											}
										}
									}
								}
								JOINT mixamorig:LeftHandRing1
								{
									OFFSET 22.299240 0.021149 -3.964172
									CHANNELS 3 Xrotation Yrotation Zrotation
									JOINT mixamorig:LeftHandRing2
									{
										OFFSET 6.321869 0.000000 0.000000
										CHANNELS 3 Xrotation Yrotation Zrotation
										JOINT mixamorig:LeftHandRing3
										{
											OFFSET 5.899796 0.000000 0.000000
											CHANNELS 3 Xrotation Yrotation Zrotation
											JOINT mixamorig:LeftHandRing4
											{
												OFFSET 6.517899 0.000000 0.000000
												CHANNELS 3 Xrotation Yrotation Zrotation
												End Site
												{
													OFFSET -1.637299 6.232208 0.980890
												}
											}
										}
									}
								}
								JOINT mixamorig:LeftHandPinky1
								{
									OFFSET 20.463791 -0.302338 -8.562233
									CHANNELS 3 Xrotation Yrotation Zrotation
									JOINT mixamorig:LeftHandPinky2
									{
										OFFSET 6.908646 0.000000 0.000000
										CHANNELS 3 Xrotation Yrotation Zrotation
										JOINT mixamorig:LeftHandPinky3
										{
											OFFSET 4.622849 0.000000 0.000000
											CHANNELS 3 Xrotation Yrotation Zrotation
											JOINT mixamorig:LeftHandPinky4
											{
												OFFSET 5.216080 0.000000 0.000000
												CHANNELS 3 Xrotation Yrotation Zrotation
												End Site
												{
													OFFSET -0.606308 5.116241 0.814926
												}
											}
										}
									}
								}
							}
						}
					}
				}
				JOINT mixamorig:RightShoulder
				{
					OFFSET -12.001300 18.284088 1.348900
					CHANNELS 3 Xrotation Yrotation Zrotation
					JOINT mixamorig:RightArm
					{
						OFFSET -25.308500 -0.751312 -5.164599
						CHANNELS 3 Xrotation Yrotation Zrotation
						JOINT mixamorig:RightForeArm
						{
							OFFSET -54.684429 0.000000 0.000000
							CHANNELS 3 Xrotation Yrotation Zrotation
							JOINT mixamorig:RightHand
							{
								OFFSET -55.150291 0.000000 0.000000
								CHANNELS 3 Xrotation Yrotation Zrotation
								JOINT mixamorig:RightHandMiddle1
								{
									OFFSET -23.317566 0.000000 0.000000
									CHANNELS 3 Xrotation Yrotation Zrotation
									JOINT mixamorig:RightHandMiddle2
									{
										OFFSET -6.378403 0.000000 0.000000
										CHANNELS 3 Xrotation Yrotation Zrotation
										JOINT mixamorig:RightHandMiddle3
										{
											OFFSET -6.148193 0.000000 0.000000
											CHANNELS 3 Xrotation Yrotation Zrotation
											JOINT mixamorig:RightHandMiddle4
											{
												OFFSET -6.583389 0.000000 0.000000
												CHANNELS 3 Xrotation Yrotation Zrotation
												End Site
												{
													OFFSET 1.171692 6.395905 1.029786
												}
											}
										}
									}
								}
								JOINT mixamorig:RightHandThumb1
								{
									OFFSET -7.190521 -3.860474 5.435846
									CHANNELS 3 Xrotation Yrotation Zrotation
									JOINT mixamorig:RightHandThumb2
									{
										OFFSET -6.567429 -3.791718 3.791708
										CHANNELS 3 Xrotation Yrotation Zrotation
										JOINT mixamorig:RightHandThumb3
										{
											OFFSET -6.062469 -3.500153 3.500166
											CHANNELS 3 Xrotation Yrotation Zrotation
											JOINT mixamorig:RightHandThumb4
											{
												OFFSET -4.792618 -2.767029 2.767022
												CHANNELS 3 Xrotation Yrotation Zrotation
												End Site
												{
													OFFSET -0.100327 6.053253 1.276754
												}
											}
										}
									}
								}
								JOINT mixamorig:RightHandIndex1
								{
									OFFSET -23.048981 -0.310791 4.992554
									CHANNELS 3 Xrotation Yrotation Zrotation
									JOINT mixamorig:RightHandIndex2
									{
										OFFSET -6.227539 0.000000 0.000000
										CHANNELS 3 Xrotation Yrotation Zrotation
										JOINT mixamorig:RightHandIndex3
										{
											OFFSET -6.095047 0.000000 0.000000
											CHANNELS 3 Xrotation Yrotation Zrotation
											JOINT mixamorig:RightHandIndex4
											{
												OFFSET -5.484772 0.000000 0.000000
												CHANNELS 3 Xrotation Yrotation Zrotation
												End Site
												{
													OFFSET 1.420593 5.237305 0.797056
												}
											}
										}
									}
								}
								JOINT mixamorig:RightHandRing1
								{
									OFFSET -22.246323 0.020569 -3.963762
									CHANNELS 3 Xrotation Yrotation Zrotation
									JOINT mixamorig:RightHandRing2
									{
										OFFSET -6.322128 0.000000 0.000000
										CHANNELS 3 Xrotation Yrotation Zrotation
										JOINT mixamorig:RightHandRing3
										{
											OFFSET -5.900024 0.000000 0.000000
											CHANNELS 3 Xrotation Yrotation Zrotation
											JOINT mixamorig:RightHandRing4
											{
												OFFSET -6.518356 0.000000 0.000000
												CHANNELS 3 Xrotation Yrotation Zrotation
												End Site
												{
													OFFSET 1.636398 6.232697 0.982186
												}
											}
										}
									}
								}
								JOINT mixamorig:RightHandPinky1
								{
									OFFSET -20.411011 -0.303314 -8.561701
									CHANNELS 3 Xrotation Yrotation Zrotation
									JOINT mixamorig:RightHandPinky2
									{
										OFFSET -6.907349 0.000000 0.000000
										CHANNELS 3 Xrotation Yrotation Zrotation
										JOINT mixamorig:RightHandPinky3
										{
											OFFSET -4.623840 0.000000 0.000000
											CHANNELS 3 Xrotation Yrotation Zrotation
											JOINT mixamorig:RightHandPinky4
											{
												OFFSET -5.218353 0.000000 0.000000
												CHANNELS 3 Xrotation Yrotation Zrotation
												End Site
												{
													OFFSET 0.602097 5.118835 0.816273
												}
											}
										}
									}
								}
							}
						}
					}
				}
			}
		}
	}
	JOINT mixamorig:LeftUpLeg
	{
		OFFSET 18.168400 -13.561905 -0.039000
		CHANNELS 3 Xrotation Yrotation Zrotation
		JOINT mixamorig:LeftLeg
		{
			OFFSET 0.577358 -80.825211 -3.695000
			CHANNELS 3 Xrotation Yrotation Zrotation
			JOINT mixamorig:LeftFoot
			{
				OFFSET -0.577356 -83.370262 -6.520700
				CHANNELS 3 Xrotation Yrotation Zrotation
				JOINT mixamorig:LeftToeBase
				{
					OFFSET 0.750401 -20.798306 25.135401
					CHANNELS 3 Xrotation Yrotation Zrotation
					JOINT mixamorig:LeftToe_End
					{
						OFFSET -0.000500 0.001200 19.917799
						CHANNELS 3 Xrotation Yrotation Zrotation
						End Site
						{
							OFFSET 0.000000 19.917805 0.000000
						}
					}
				}
			}
		}
	}
	JOINT mixamorig:RightUpLeg
	{
		OFFSET -18.162500 -13.585098 -0.041000
		CHANNELS 3 Xrotation Yrotation Zrotation
		JOINT mixamorig:RightLeg
		{
			OFFSET -0.595024 -80.945297 -3.631900
			CHANNELS 3 Xrotation Yrotation Zrotation
			JOINT mixamorig:RightFoot
			{
				OFFSET 0.595024 -83.218193 -6.561200
				CHANNELS 3 Xrotation Yrotation Zrotation
				JOINT mixamorig:RightToeBase
				{
					OFFSET -0.753601 -20.807106 25.115000
					CHANNELS 3 Xrotation Yrotation Zrotation
					JOINT mixamorig:RightToe_End
					{
						OFFSET 0.000299 0.001700 19.918200
						CHANNELS 3 Xrotation Yrotation Zrotation
						End Site
						{
							OFFSET 0.000000 19.918203 0.000000
						}
					}
				}
			}
		}
	}
}
MOTION
Frames: 4
Frame Time: 0.033333
0.650070 199.973541 3.274218 -4.489780 4.475171 -0.665435 1.350135 -0.931297 0.435689 2.702471 -1.830048 0.675005 2.702470 -1.830049 0.675005 17.073974 0.618359 -2.441585 11.660529 4.928976 -7.097197 -0.000002 0.000000 -0.000000 -0.000002 0.000000 -0.000000 -0.000002 0.000000 -0.000000 0.655994 -11.474432 -8.718923 5.921153 -12.261705 -71.002542 -46.888975 -82.243257 -44.244244 7.611196 -24.995489 49.687102 -3.204520 5.232254 -26.413474 8.078170 3.261276 -105.245975 6.341160 1.706394 -28.410322 -0.000000 -0.000001 -0.000001 -3.663771 11.096004 15.285014 -3.761187 17.617418 22.630660 -12.053885 -23.268504 -8.627585 0.000000 -0.000001 0.000002 0.160097 5.120811 -3.578757 9.269661 3.064275 -117.032177 4.831059 -0.728514 -23.783345 -0.000002 0.000000 -0.000000 3.050205 2.854201 -39.502655 2.901525 8.409469 -119.434682 6.528187 1.607365 -32.812481 -0.000000 -0.000001 -0.000002 -18.234179 9.050834 -27.340930 9.457226 6.518739 -111.346263 10.418736 6.383638 -28.866306 0.000000 -0.000001 -0.000002 0.490950 6.770186 13.032305 16.651441 40.838247 40.580777 -79.108310 121.099705 78.852335 18.747875 -38.058555 -25.558633 -0.612156 -6.142733 73.222510 9.686865 -2.709059 93.147197 6.204555 4.339712 17.761608 0.000001 -0.000001 -0.000003 -2.043742 -4.472776 -6.534490 -1.678652 -16.573063 -17.995576 -10.117557 20.272136 7.453100 0.000001 0.000001 -0.000002 -2.166041 -1.201144 25.596226 2.188443 -0.633593 25.101715 4.824549 5.850980 -22.268841 0.000002 0.000000 -0.000000 2.933213 -10.072910 91.981994 11.438192 -3.183517 97.530716 6.249381 6.105734 18.085866 0.000000 -0.000000 0.000000 -0.221832 -14.118792 96.343445 14.211377 -4.564962 100.161978 10.588299 2.358830 -8.650191 0.000000 0.000001 -0.000000 -4.945635 9.557396 7.654139 15.815597 15.238919 0.567572 -5.933128 0.094766 -7.549832 -1.289044 0.000002 0.000001 -0.000000 0.000002 0.000000 0.759615 -2.754064 6.518896 7.760088 -3.914156 -0.095405 -4.916384 0.160193 -5.289931 0.493470 0.000000 -0.000001 -0.000000 -0.000000 0.000000 
0.664192 199.989487 3.236870 -4.520263 4.292144 -0.684346 1.347235 -0.925440 0.436237 2.696646 -1.818073 0.675127 2.696649 -1.818073 0.675127 17.081535 0.568467 -2.369453 11.584421 4.737443 -7.041020 -0.000003 0.000001 -0.000001 -0.000003 0.000001 -0.000001 -0.000003 0.000001 -0.000001 0.660088 -11.611213 -8.675936 5.756649 -12.259899 -71.089866 -46.879427 -81.941096 -44.246785 7.643232 -24.939597 49.894843 -3.204522 5.232255 -26.413474 8.078171 3.261277 -105.245975 6.341160 1.706394 -28.410324 -0.000002 0.000000 0.000002 -3.663771 11.096005 15.285016 -3.761187 17.617419 22.630660 -12.053885 -23.268506 -8.627591 0.000002 0.000001 0.000002 0.160097 5.120813 -3.578757 9.269660 3.064275 -117.032177 4.831059 -0.728514 -23.783349 0.000000 0.000001 -0.000000 3.050205 2.854200 -39.502655 2.901521 8.409467 -119.434682 6.528187 1.607365 -32.812481 -0.000001 0.000000 -0.000003 -18.234175 9.050834 -27.340926 9.457224 6.518738 -111.346263 10.418740 6.383639 -28.866306 -0.000002 0.000001 0.000000 0.485186 7.029000 12.969619 17.164834 42.540580 39.494777 -79.637260 121.140836 79.540087 19.942561 -36.854256 -23.991255 -0.612159 -6.142728 73.222503 9.686891 -2.709059 93.147210 6.204559 4.339702 17.761615 0.000001 -0.000001 0.000001 -2.043743 -4.472780 -6.534494 -1.678640 -16.573051 -17.995556 -10.117559 20.272138 7.453096 0.000002 -0.000000 -0.000004 -2.166044 -1.201130 25.596230 2.188448 -0.633587 25.101710 4.824545 5.850980 -22.268840 0.000001 0.000002 -0.000000 2.933220 -10.072904 91.982007 11.438195 -3.183512 97.530689 6.249381 6.105746 18.085870 -0.000001 -0.000001 0.000001 -0.221828 -14.118799 96.343445 14.211357 -4.564971 100.161985 10.588303 2.358818 -8.650180 -0.000003 0.000000 -0.000001 -4.859813 9.606121 7.652815 15.748060 15.378845 0.572464 -5.908242 0.097285 -7.559014 -1.279310 -0.000018 0.000000 0.000000 -0.000001 -0.000000 0.826580 -2.712381 6.519529 7.655071 -3.767836 -0.089227 -4.830746 0.161468 -5.301405 0.479556 0.000000 -0.000001 0.000000 0.000000 0.000000 
0.677209 200.003342 3.184595 -4.575527 4.111994 -0.700796 1.350063 -0.937779 0.437907 2.702358 -1.842402 0.678378 2.702358 -1.842403 0.678378 17.092384 0.548274 -2.306624 11.527491 4.611378 -7.038576 0.000001 0.000000 0.000000 0.000001 0.000000 0.000000 0.000001 0.000000 0.000000 0.663515 -11.766092 -8.647419 5.586656 -12.260117 -71.173337 -46.808697 -81.602442 -44.187222 7.683810 -24.877572 50.142358 -3.204522 5.232254 -26.413475 8.078171 3.261277 -105.245975 6.341163 1.706395 -28.410326 -0.000000 0.000002 0.000005 -3.663773 11.096003 15.285014 -3.761187 17.617423 22.630659 -12.053886 -23.268508 -8.627579 0.000000 -0.000001 0.000002 0.160097 5.120811 -3.578756 9.269662 3.064275 -117.032177 4.831060 -0.728515 -23.783349 -0.000000 0.000000 -0.000002 3.050203 2.854200 -39.502655 2.901519 8.409466 -119.434669 6.528189 1.607363 -32.812478 -0.000001 -0.000000 -0.000001 -18.234177 9.050834 -27.340931 9.457225 6.518738 -111.346263 10.418737 6.383638 -28.866309 -0.000001 0.000001 0.000002 0.479065 7.275728 12.937862 18.267517 44.747691 37.685760 -80.218427 121.622720 80.285336 21.379126 -34.947141 -21.168940 -0.612153 -6.142717 73.222483 9.686865 -2.709063 93.147217 6.204559 4.339692 17.761612 0.000003 -0.000005 -0.000001 -2.043744 -4.472759 -6.534497 -1.678639 -16.573078 -17.995559 -10.117551 20.272104 7.453083 0.000001 0.000001 -0.000003 -2.166043 -1.201142 25.596223 2.188450 -0.633578 25.101707 4.824546 5.850989 -22.268841 0.000001 -0.000005 0.000000 2.933206 -10.072903 91.981987 11.438201 -3.183518 97.530710 6.249379 6.105734 18.085863 -0.000001 -0.000000 0.000001 -0.221842 -14.118785 96.343445 14.211358 -4.564970 100.161978 10.588304 2.358795 -8.650184 0.000001 0.000000 0.000001 -4.759073 9.663500 7.653483 15.690010 15.506126 0.577025 -5.885040 0.099979 -7.566265 -1.270846 -0.000034 0.000001 -0.000000 0.000002 0.000000 0.904408 -2.670209 6.519312 7.570804 -3.625917 -0.083203 -4.753022 0.162428 -5.311982 0.469353 0.000000 -0.000002 0.000000 0.000000 0.000000 
0.690226 200.013870 3.120617 -4.648825 3.938021 -0.720673 1.358243 -0.955278 0.444545 2.718857 -1.876820 0.691399 2.718858 -1.876821 0.691399 17.098151 0.532421 -2.251056 11.486051 4.496872 -7.073378 0.000002 -0.000000 -0.000000 0.000002 -0.000000 -0.000000 0.000002 -0.000000 -0.000000 0.663402 -11.893968 -8.665888 5.415829 -12.341999 -71.209742 -45.992267 -81.330225 -43.359516 7.720404 -24.818268 50.363216 -3.204522 5.232255 -26.413474 8.078171 3.261279 -105.245975 6.341161 1.706393 -28.410320 0.000001 0.000001 0.000007 -3.663774 11.096006 15.285009 -3.761188 17.617418 22.630664 -12.053888 -23.268510 -8.627579 0.000001 0.000000 -0.000001 0.160096 5.120811 -3.578760 9.269659 3.064275 -117.032163 4.831059 -0.728514 -23.783347 -0.000001 0.000002 -0.000000 3.050203 2.854199 -39.502655 2.901523 8.409465 -119.434669 6.528190 1.607364 -32.812478 -0.000000 -0.000000 0.000001 -18.234179 9.050836 -27.340931 9.457225 6.518738 -111.346256 10.418736 6.383637 -28.866309 0.000000 -0.000001 -0.000000 0.471807 7.539680 12.929677 19.763530 47.021276 35.443194 -80.512576 121.434562 80.858990 22.761185 -32.154984 -16.994738 -0.612153 -6.142734 73.222497 9.686905 -2.709062 93.147203 6.204554 4.339732 17.761606 0.000002 -0.000003 -0.000001 -2.043746 -4.472767 -6.534491 -1.678643 -16.573063 -17.995573 -10.117553 20.272135 7.453109 0.000002 -0.000002 0.000003 -2.166045 -1.201147 25.596228 2.188451 -0.633563 25.101720 4.824536 5.850960 -22.268841 -0.000000 -0.000001 -0.000002 2.933207 -10.072905 91.981987 11.438195 -3.183517 97.530716 6.249375 6.105755 18.085863 0.000001 0.000000 -0.000001 -0.221840 -14.118806 96.343452 14.211371 -4.564964 100.161972 10.588310 2.358818 -8.650182 -0.000001 -0.000001 0.000001 -4.656373 9.722086 7.661802 15.653388 15.624476 0.581461 -5.869271 0.102388 -7.574061 -1.262898 0.000001 -0.000001 0.000000 -0.000001 0.000000 0.991510 -2.630710 6.523831 7.499417 -3.487717 -0.077374 -4.679452 0.162789 -5.321989 0.466577 0.000000 -0.000001 0.000000 0.000000 0.000000 
